<svg id="SvgjsSvg1016" width="288" height="288" xmlns="http://www.w3.org/2000/svg" version="1.1" xmlns:xlink="http://www.w3.org/1999/xlink" xmlns:svgjs="http://svgjs.com/svgjs"><defs id="SvgjsDefs1017"></defs><g id="SvgjsG1018"><svg xmlns="http://www.w3.org/2000/svg" viewBox="0 0 24 24" width="288" height="288"><path d="M2.88,16.88a3,3,0,0,0,0,4.24,3,3,0,0,0,4.24,0,3,3,0,0,0-4.24-4.24Zm2.83,2.83a1,1,0,0,1-1.42-1.42,1,1,0,0,1,1.42,0A1,1,0,0,1,5.71,19.71ZM5,12a1,1,0,0,0,0,2,5,5,0,0,1,5,5,1,1,0,0,0,2,0,7,7,0,0,0-7-7ZM5,8a1,1,0,0,0,0,2,9,9,0,0,1,9,9,1,1,0,0,0,2,0,11.08,11.08,0,0,0-3.22-7.78A11.08,11.08,0,0,0,5,8Zm10.61.39A15.11,15.11,0,0,0,5,4,1,1,0,0,0,5,6,13,13,0,0,1,18,19a1,1,0,0,0,2,0A15.11,15.11,0,0,0,15.61,8.39Z" fill="#ffffff" class="color000 svgShape"></path></svg></g></svg>